<svg xmlns="http://www.w3.org/2000/svg" viewBox="0 0 1080 1920" width="1080" height="1920"><rect width="1080" height="1920" fill="#F4F0E8"/><ellipse cx="540" cy="1020" rx="440" ry="435" fill="#7BA4B0" opacity="0.10"/><path d="M0 1675 Q540 1600 1080 1660 L1080 1920 L0 1920Z" fill="#E9E2D6"/><rect x="180" y="675" width="720" height="340" rx="20" fill="#DDE8EB" stroke="#273341" stroke-width="9"/><rect x="390" y="1005" width="300" height="30" rx="3" fill="#273341" stroke="none" stroke-width="0"/><circle cx="300.0" cy="1120.0" r="24.439999999999998" fill="#B77E5C" stroke="#273341" stroke-width="3.29"/><circle cx="292.48" cy="1117.65" r="1.41" fill="#273341" stroke="none" stroke-width="0"/><circle cx="307.52" cy="1117.65" r="1.41" fill="#273341" stroke="none" stroke-width="0"/><path d="M293.42 1130.34 Q300.0 1134.1 306.58 1130.34" fill="none" stroke="#273341" stroke-width="1.88"/><rect x="273.21" y="1150.55" width="53.58" height="81.31" rx="16.45" fill="#7BA4B0" stroke="#273341" stroke-width="2.82"/><path d="M274.15 1163.24 L248.3 1209.3" stroke="#273341" stroke-width="7.989999999999999" stroke-linecap="round" fill="none"/><path d="M325.85 1163.24 L351.7 1209.3" stroke="#273341" stroke-width="7.989999999999999" stroke-linecap="round" fill="none"/><path d="M285.9 1231.86 L278.38 1289.2" stroke="#273341" stroke-width="9.399999999999999" stroke-linecap="round" fill="none"/><path d="M314.1 1231.86 L321.62 1289.2" stroke="#273341" stroke-width="9.399999999999999" stroke-linecap="round" fill="none"/><circle cx="570.0" cy="1120.0" r="24.439999999999998" fill="#B77E5C" stroke="#273341" stroke-width="3.29"/><circle cx="562.48" cy="1117.65" r="1.41" fill="#273341" stroke="none" stroke-width="0"/><circle cx="577.52" cy="1117.65" r="1.41" fill="#273341" stroke="none" stroke-width="0"/><path d="M563.42 1130.34 Q570.0 1134.1 576.58 1130.34" fill="none" stroke="#273341" stroke-width="1.88"/><rect x="543.21" y="1150.55" width="53.58" height="81.31" rx="16.45" fill="#99B7A5" stroke="#273341" stroke-width="2.82"/><path d="M544.15 1164.18 L511.25 1201.78" stroke="#273341" stroke-width="7.989999999999999" stroke-linecap="round" fill="none"/><path d="M595.85 1164.18 L617.0 1201.78" stroke="#273341" stroke-width="7.989999999999999" stroke-linecap="round" fill="none"/><path d="M555.9 1231.86 L548.38 1289.2" stroke="#273341" stroke-width="9.399999999999999" stroke-linecap="round" fill="none"/><path d="M584.1 1231.86 L591.62 1289.2" stroke="#273341" stroke-width="9.399999999999999" stroke-linecap="round" fill="none"/><circle cx="845.0" cy="1120.0" r="24.439999999999998" fill="#B77E5C" stroke="#273341" stroke-width="3.29"/><circle cx="837.48" cy="1117.65" r="1.41" fill="#273341" stroke="none" stroke-width="0"/><circle cx="852.52" cy="1117.65" r="1.41" fill="#273341" stroke="none" stroke-width="0"/><path d="M838.42 1130.34 Q845.0 1134.1 851.58 1130.34" fill="none" stroke="#273341" stroke-width="1.88"/><rect x="818.21" y="1150.55" width="53.58" height="81.31" rx="16.45" fill="#C77968" stroke="#273341" stroke-width="2.82"/><path d="M819.15 1163.24 L793.3 1209.3" stroke="#273341" stroke-width="7.989999999999999" stroke-linecap="round" fill="none"/><path d="M870.85 1163.24 L896.7 1209.3" stroke="#273341" stroke-width="7.989999999999999" stroke-linecap="round" fill="none"/><path d="M830.9 1231.86 L823.38 1289.2" stroke="#273341" stroke-width="9.399999999999999" stroke-linecap="round" fill="none"/><path d="M859.1 1231.86 L866.62 1289.2" stroke="#273341" stroke-width="9.399999999999999" stroke-linecap="round" fill="none"/></svg>